HIERARCHY
ROOT Hips
{
	OFFSET 0.000000 0.000000 0.000000
	CHANNELS 6 Xposition Yposition Zposition Xrotation Yrotation Zrotation
	JOINT LeftUpLeg_virtual
	{
		OFFSET 0.000000 0.000000 0.000000
		CHANNELS 3 Xrotation Yrotation Zrotation
		JOINT LeftUpLeg
		{
			OFFSET 13.026900 -6.336304 -1.092800
			CHANNELS 3 Xrotation Yrotation Zrotation
			JOINT LeftLeg
			{
				OFFSET 0.524474 -46.096886 9.782700
				CHANNELS 3 Xrotation Yrotation Zrotation
				JOINT LeftFoot
				{
					OFFSET -0.524474 -53.427422 -12.948200
					CHANNELS 3 Xrotation Yrotation Zrotation
					JOINT LeftToeBase
					{
						OFFSET 0.192200 -14.009700 16.364100
						CHANNELS 3 Xrotation Yrotation Zrotation
						JOINT LeftToe_End
						{
							OFFSET -1.784700 -0.561700 9.474800
							CHANNELS 3 Xrotation Yrotation Zrotation
							End Site
							{
								OFFSET 0 0 0
							}
						}
					}
				}
			}
		}
	}
	JOINT RightUpLeg_virtual
	{
		OFFSET 0.000000 0.000000 0.000000
		CHANNELS 3 Xrotation Yrotation Zrotation
		JOINT RightUpLeg
		{
			OFFSET -12.883000 -6.336304 -1.092800
			CHANNELS 3 Xrotation Yrotation Zrotation
			JOINT RightLeg
			{
				OFFSET -0.524587 -46.096825 9.782800
				CHANNELS 3 Xrotation Yrotation Zrotation
				JOINT RightFoot
				{
					OFFSET 0.524587 -53.427383 -12.948300
					CHANNELS 3 Xrotation Yrotation Zrotation
					JOINT RightToeBase
					{
						OFFSET -0.192200 -14.009700 16.364100
						CHANNELS 3 Xrotation Yrotation Zrotation
						JOINT RightToe_End
						{
							OFFSET 1.784700 -0.561700 9.474800
							CHANNELS 3 Xrotation Yrotation Zrotation
							End Site
							{
								OFFSET 0 0 0
							}
						}
					}
				}
			}
		}
	}
	JOINT Spine_virtual
	{
		OFFSET 0.000000 0.000000 0.000000
		CHANNELS 3 Xrotation Yrotation Zrotation
		JOINT Spine
		{
			OFFSET 0.072000 7.257294 -0.789700
			CHANNELS 3 Xrotation Yrotation Zrotation
			JOINT Spine1
			{
				OFFSET 0.000000 12.508769 -0.658067
				CHANNELS 3 Xrotation Yrotation Zrotation
				JOINT Spine1_split
				{
					OFFSET 0.000000 12.508769 -0.658067
					CHANNELS 3 Xrotation Yrotation Zrotation
					JOINT Spine2
					{
						OFFSET 0.000000 12.508769 -0.658067
						CHANNELS 3 Xrotation Yrotation Zrotation
						JOINT Neck_virtual
						{
							OFFSET 0.000000 0.000000 0.000000
							CHANNELS 3 Xrotation Yrotation Zrotation
							JOINT Neck
							{
								OFFSET 0.000000 14.033295 7.520400
								CHANNELS 3 Xrotation Yrotation Zrotation
								JOINT Head
								{
									OFFSET 0.000000 8.198502 5.703100
									CHANNELS 3 Xrotation Yrotation Zrotation
									JOINT HeadTop_End
									{
										OFFSET 0.000000 17.760803 13.332701
										CHANNELS 3 Xrotation Yrotation Zrotation
										End Site
										{
											OFFSET 0 0 0
										}
									}
								}
							}
						}
						JOINT LeftShoulder_virtual
						{
							OFFSET 0.000000 0.000000 0.000000
							CHANNELS 3 Xrotation Yrotation Zrotation
							JOINT LeftShoulder
							{
								OFFSET 6.292450 5.785301 -0.669000
								CHANNELS 3 Xrotation Yrotation Zrotation
								JOINT LeftShoulder_split
								{
									OFFSET 6.292450 5.785301 -0.669000
									CHANNELS 3 Xrotation Yrotation Zrotation
									JOINT LeftArm
									{
										OFFSET 13.907140 -6.093903 1.965100
										CHANNELS 3 Xrotation Yrotation Zrotation
										JOINT LeftForeArm
										{
											OFFSET 34.140198 0.000000 0.000000
											CHANNELS 3 Xrotation Yrotation Zrotation
											JOINT LeftHand
											{
												OFFSET 40.960209 0.000000 0.000000
												CHANNELS 3 Xrotation Yrotation Zrotation
												End Site
												{
													OFFSET 0 0 0
												}
											}
										}
									}
								}
							}
						}
						JOINT RightShoulder_virtual
						{
							OFFSET 0.000000 0.000000 0.000000
							CHANNELS 3 Xrotation Yrotation Zrotation
							JOINT RightShoulder
							{
								OFFSET -6.292450 5.785301 -0.669000
								CHANNELS 3 Xrotation Yrotation Zrotation
								JOINT RightShoulder_split
								{
									OFFSET -6.292450 5.785301 -0.669000
									CHANNELS 3 Xrotation Yrotation Zrotation
									JOINT RightArm
									{
										OFFSET -13.907140 -6.093903 1.965100
										CHANNELS 3 Xrotation Yrotation Zrotation
										JOINT RightForeArm
										{
											OFFSET -34.140198 0.000000 0.000000
											CHANNELS 3 Xrotation Yrotation Zrotation
											JOINT RightHand
											{
												OFFSET -40.960209 0.000000 0.000000
												CHANNELS 3 Xrotation Yrotation Zrotation
												End Site
												{
													OFFSET 0 0 0
												}
											}
										}
									}
								}
							}
						}
					}
				}
			}
		}
	}
}
MOTION
Frames: 8
Frame Time: 0.03333333
0.307042 119.257881 1.075409 0.000000 0.000000 0.000000 -3.751741 -5.199260 -4.118662 -10.762731 14.619374 11.132150 11.402509 1.991415 4.040396 1.948523 0.452120 -7.422265 -4.940038 -0.000003 -0.000001 0.000000 0.000000 0.000000 -3.751741 -5.199260 -4.118662 1.477240 -10.322566 3.026401 7.029857 -9.404581 -3.185307 -3.892489 -2.006228 4.130755 -7.282874 -0.000001 0.000001 0.000000 0.000000 0.000000 -3.751741 -5.199260 -4.118662 3.286184 1.551418 3.095973 1.151563 0.341256 1.563088 0.000000 0.000000 0.000000 0.000000 0.000000 0.000000 1.124399 0.369601 1.558065 5.626310 -0.076129 0.454683 -7.563350 1.377077 -0.080249 0.000000 0.000000 0.000000 1.124399 0.369601 1.558065 1.046817 -17.441250 -12.316055 0.000000 0.000000 0.000000 3.916267 -19.989254 -69.765219 -0.000005 -1.459364 0.000004 0.000000 0.000000 0.000000 1.124399 0.369601 1.558065 1.209146 15.345162 14.705933 0.000000 0.000000 0.000000 13.158867 27.555135 58.785157 -0.000005 6.693737 -0.000005 0.000000 0.000000 0.000000 
0.321267 119.224846 1.052757 0.000000 0.000000 0.000000 -3.796247 -5.494887 -4.204506 -10.796806 14.622658 11.302362 11.593926 2.251504 3.988308 1.807762 0.456219 -7.427838 -4.940033 -0.000003 -0.000001 0.000000 0.000000 0.000000 -3.796247 -5.494887 -4.204506 1.420589 -10.330261 3.214311 7.111719 -8.726115 -3.311918 -3.872698 -2.400197 4.063265 -7.282873 0.000002 -0.000000 0.000000 0.000000 0.000000 -3.796247 -5.494887 -4.204506 3.285696 1.550665 3.114059 1.151563 0.341255 1.563089 0.000000 0.000000 0.000000 0.000000 0.000000 0.000000 1.124400 0.369602 1.558065 5.658001 -0.073426 0.433887 -7.562017 1.396771 -0.134892 0.000000 0.000000 0.000000 1.124400 0.369602 1.558065 1.049202 -17.430824 -12.315339 0.000000 0.000000 0.000000 3.861914 -20.202545 -69.781338 -0.000003 -1.523122 -0.000009 0.000000 0.000000 0.000000 1.124400 0.369602 1.558065 1.206564 15.367490 14.694090 0.000000 0.000000 0.000000 13.125052 27.554849 58.770759 -0.000003 6.622053 0.000003 0.000000 0.000000 0.000000 
0.331588 119.178162 1.038563 0.000000 0.000000 0.000000 -3.846232 -5.811295 -4.287238 -10.837639 14.629128 11.480167 11.825142 2.526475 3.934338 1.637970 0.461188 -7.444975 -4.940033 0.000002 0.000003 0.000000 0.000000 0.000000 -3.846232 -5.811295 -4.287238 1.339659 -10.330314 3.389688 7.255091 -8.044263 -3.430479 -3.883877 -2.785503 3.994577 -7.287773 -0.000000 -0.000001 0.000000 0.000000 0.000000 -3.846232 -5.811295 -4.287238 3.285356 1.549729 3.127109 1.151563 0.341255 1.563088 0.000000 0.000000 0.000000 0.000000 0.000000 0.000000 1.124399 0.369603 1.558064 5.693594 -0.068301 0.415616 -7.559567 1.446650 -0.179899 0.000000 0.000000 0.000000 1.124399 0.369603 1.558064 1.050917 -17.423338 -12.314826 0.000000 0.000000 0.000000 3.808591 -20.203677 -69.807935 -0.000004 -1.531678 -0.000014 0.000000 0.000000 0.000000 1.124399 0.369603 1.558064 1.199731 15.377517 14.710617 0.000000 0.000000 0.000000 13.152622 27.622921 58.680512 0.000002 6.503550 -0.000004 0.000000 0.000000 0.000000 
0.339603 119.125504 1.032753 0.000000 0.000000 0.000000 -3.901064 -6.146234 -4.375096 -10.878970 14.640273 11.671391 12.076247 2.813369 3.878674 1.461160 0.464254 -7.475743 -4.940033 -0.000003 0.000004 0.000000 0.000000 0.000000 -3.901064 -6.146234 -4.375096 1.256304 -10.327395 3.566019 7.421676 -7.344846 -3.542802 -3.908280 -3.170783 3.920596 -7.299795 -0.000007 -0.000001 0.000000 0.000000 0.000000 -3.901064 -6.146234 -4.375096 3.284968 1.548595 3.146622 1.151564 0.344952 1.563088 0.000000 0.000000 0.000000 0.000000 0.000000 0.000000 1.124399 0.369602 1.564418 5.730481 -0.065322 0.401212 -7.556037 1.513081 -0.218141 0.000000 0.000000 0.000000 1.124399 0.369602 1.564418 1.053010 -17.414185 -12.314199 0.000000 0.000000 0.000000 3.768652 -20.016610 -69.831581 -0.000003 -1.492131 -0.000007 0.000000 0.000000 0.000000 1.124399 0.369602 1.564418 1.187783 15.381772 14.752398 0.000000 0.000000 0.000000 13.268588 27.793916 58.482887 -0.000013 6.357399 -0.000009 0.000000 0.000000 0.000000 
0.347303 119.071640 1.033581 0.000000 0.000000 0.000000 -3.961263 -6.494781 -4.462257 -10.909807 14.653935 11.864224 12.329569 3.110344 3.822485 1.291320 0.467984 -7.521876 -4.940030 -0.000008 -0.000002 0.000000 0.000000 0.000000 -3.961263 -6.494781 -4.462257 1.177135 -10.323932 3.739650 7.596600 -6.636973 -3.655686 -3.937738 -3.556299 3.846347 -7.309937 -0.000000 0.000002 0.000000 0.000000 0.000000 -3.961263 -6.494781 -4.462257 3.284510 1.550794 3.167795 1.151563 0.348857 1.567591 0.000000 0.000000 0.000000 0.000000 0.000000 0.000000 1.124399 0.374512 1.572563 5.766741 -0.063444 0.390192 -7.547625 1.558061 -0.262354 0.000000 0.000000 0.000000 1.124399 0.374512 1.572563 1.057808 -17.393218 -12.312767 0.000000 0.000000 0.000000 3.758140 -19.732131 -69.832093 -0.000006 -1.420456 0.000002 0.000000 0.000000 0.000000 1.124399 0.374512 1.572563 1.178336 15.402403 14.787805 0.000000 0.000000 0.000000 13.468016 28.056749 58.208873 -0.000010 6.243474 -0.000003 0.000000 0.000000 0.000000 
0.357261 119.019867 1.039085 0.000000 0.000000 0.000000 -4.025382 -6.852831 -4.539024 -10.920033 14.666976 12.042780 12.569811 3.420073 3.766199 1.132534 0.472261 -7.581195 -4.940031 -0.000004 0.000000 0.000000 0.000000 0.000000 -4.025382 -6.852831 -4.539024 1.100684 -10.323228 3.899285 7.775626 -5.923166 -3.769416 -3.969117 -3.941744 3.773642 -7.319063 -0.000003 -0.000000 0.000000 0.000000 0.000000 -4.025382 -6.852831 -4.539024 3.284033 1.554934 3.189814 1.151563 0.356537 1.578239 0.000000 0.000000 0.000000 0.000000 0.000000 0.000000 1.124399 0.381294 1.583577 5.800806 -0.062503 0.381137 -7.524192 1.574236 -0.320531 0.000000 0.000000 0.000000 1.124399 0.381294 1.583577 1.058660 -17.352207 -12.300426 0.000000 0.000000 0.000000 3.778524 -19.441724 -69.801508 0.000008 -1.327801 0.000001 0.000000 0.000000 0.000000 1.124399 0.381294 1.583577 1.180832 15.472177 14.771835 0.000000 0.000000 0.000000 13.716030 28.359712 57.924997 -0.000005 6.249316 -0.000018 0.000000 0.000000 0.000000 
0.369976 118.967041 1.046505 0.000000 0.000000 0.000000 -4.090760 -7.224166 -4.592592 -10.908514 14.678546 12.195467 12.795630 3.749778 3.709439 0.981998 0.478165 -7.649203 -4.940031 0.000002 -0.000001 0.000000 0.000000 0.000000 -4.090760 -7.224166 -4.592592 1.006862 -10.317761 4.027399 7.983386 -5.213459 -3.876357 -4.013428 -4.317197 3.698620 -7.330732 -0.000009 -0.000001 0.000000 0.000000 0.000000 -4.090760 -7.224166 -4.592592 3.283700 1.560929 3.205439 1.151563 0.369532 1.590824 0.000000 0.000000 0.000000 0.000000 0.000000 0.000000 1.124399 0.393026 1.596636 5.831334 -0.062843 0.374429 -7.475917 1.577512 -0.394254 0.000000 0.000000 0.000000 1.124399 0.393026 1.596636 1.060255 -17.297908 -12.280450 0.000000 0.000000 0.000000 3.805012 -19.147100 -69.757828 0.000001 -1.211528 0.000014 0.000000 0.000000 0.000000 1.124399 0.393026 1.596636 1.194992 15.607841 14.686011 0.000000 0.000000 0.000000 13.976970 28.670836 57.646100 -0.000012 6.450812 -0.000015 0.000000 0.000000 0.000000 
0.379744 118.888115 1.050007 0.000000 0.000000 0.000000 -4.158573 -7.617036 -4.600319 -10.902618 14.688064 12.306094 13.066172 4.102052 3.653776 0.814967 0.489682 -7.731034 -4.940033 0.000001 -0.000004 0.000000 0.000000 0.000000 -4.158573 -7.617036 -4.600319 0.822358 -10.302214 4.077332 8.340828 -4.510499 -3.957555 -4.123194 -4.675553 3.616863 -7.338739 -0.000008 -0.000001 0.000000 0.000000 0.000000 -4.158573 -7.617036 -4.600319 3.284311 1.569474 3.185801 1.151564 0.384366 1.605656 0.000000 0.000000 0.000000 0.000000 0.000000 0.000000 1.124399 0.407743 1.611574 5.863456 -0.064804 0.368956 -7.398859 1.577664 -0.481165 0.000000 0.000000 0.000000 1.124399 0.407743 1.611574 1.063180 -17.245406 -12.250375 0.000000 0.000000 0.000000 3.804463 -18.782573 -69.731471 -0.000007 -1.067817 0.000005 0.000000 0.000000 0.000000 1.124399 0.407743 1.611574 1.215969 15.788179 14.561688 0.000000 0.000000 0.000000 14.203558 28.978105 57.321830 0.000004 6.893212 0.000006 0.000000 0.000000 0.000000 
